<svg xmlns="http://www.w3.org/2000/svg" xmlns:xlink="http://www.w3.org/1999/xlink" xmlns:lucid="lucid" width="642" height="163"><g transform="translate(-79 -158.00004999999976)" lucid:page-tab-id="wg60UFXosrZE"><path d="M80 207a7 7 0 0 1 7-7h146a7 7 0 0 1 7 7v106a7 7 0 0 1-7 7H87a7 7 0 0 1-7-7z" stroke="#000" stroke-width="2" fill="#c1e4f7"/><use xlink:href="#a" transform="matrix(1,0,0,1,85,205) translate(61.66666666666667 62.9375)"/><path d="M320 207a7 7 0 0 1 7-7h146a7 7 0 0 1 7 7v106a7 7 0 0 1-7 7H327a7 7 0 0 1-7-7z" stroke="#000" stroke-width="2" fill="#c92d39"/><use xlink:href="#b" transform="matrix(1,0,0,1,325,205) translate(69.44444444444444 62.9375)"/><path d="M560 207a7 7 0 0 1 7-7h146a7 7 0 0 1 7 7v106a7 7 0 0 1-7 7H567a7 7 0 0 1-7-7z" stroke="#000" stroke-width="2" fill="#c1e4f7"/><use xlink:href="#c" transform="matrix(1,0,0,1,565,205) translate(60.611111111111114 62.9375)"/><path d="M242 260h59.5" stroke="#000" stroke-width="2" fill="none"/><path d="M242.03 260.98H241v-1.96h1.03z" stroke="#000" stroke-width=".05"/><path d="M316.76 260l-14.26 4.63v-9.26z" stroke="#000" stroke-width="2"/><path d="M482 260h59.5" stroke="#000" stroke-width="2" fill="none"/><path d="M482.03 260.98H481v-1.96h1.03z" stroke="#000" stroke-width=".05"/><path d="M556.76 260l-14.26 4.63v-9.26z" stroke="#000" stroke-width="2"/><path d="M400 198v-12.33m0-12.34V161a2 2 0 0 0-2-2h-9.67m-9.66 0h-19.34m-9.66 0h-19.34m-9.66 0h-19.34m-9.66 0H282a2 2 0 0 0-2 2v12.24m0 12.24v24.48m0 12.24v12.24" stroke="#c92d39" stroke-width="2" fill="none"/><path d="M400.98 199h-1.96v-1.03h1.96z" stroke="#c92d39" stroke-width=".05" fill="#c92d39"/><path d="M280.07 256.76l-7.02-21.37 13.9-.06z" stroke="#c92d39" stroke-width="2" fill="#c92d39"/><defs><path d="M185-189c-5-48-123-54-124 2 14 75 158 14 163 119 3 78-121 87-175 55-17-10-28-26-33-46l33-7c5 56 141 63 141-1 0-78-155-14-162-118-5-82 145-84 179-34 5 7 8 16 11 25" id="d"/><use transform="matrix(0.1111111111111111,0,0,0.1111111111111111,0,0)" xlink:href="#d" id="a"/><path d="M33 0v-248h34V0H33" id="e"/><use transform="matrix(0.1111111111111111,0,0,0.1111111111111111,0,0)" xlink:href="#e" id="b"/><path d="M233-177c-1 41-23 64-60 70L243 0h-38l-65-103H63V0H30v-248c88 3 205-21 203 71zM63-129c60-2 137 13 137-47 0-61-80-42-137-45v92" id="f"/><use transform="matrix(0.1111111111111111,0,0,0.1111111111111111,0,0)" xlink:href="#f" id="c"/></defs></g></svg>