<svg xmlns="http://www.w3.org/2000/svg" xmlns:xlink="http://www.w3.org/1999/xlink" xmlns:lucid="lucid" width="762" height="364.5"><g transform="translate(-59 -77.75004999999977)" lucid:page-tab-id="wg60UFXosrZE"><path d="M60 127a7 7 0 0 1 7-7h146a7 7 0 0 1 7 7v106a7 7 0 0 1-7 7H67a7 7 0 0 1-7-7z" stroke="#000" stroke-width="2" fill="#c1e4f7"/><use xlink:href="#a" transform="matrix(1,0,0,1,65,124.99999999999994) translate(61.66666666666667 62.9375)"/><path d="M380 127a7 7 0 0 1 7-7h146a7 7 0 0 1 7 7v106a7 7 0 0 1-7 7H387a7 7 0 0 1-7-7z" stroke="#000" stroke-width="2" fill="#c92d39"/><use xlink:href="#b" transform="matrix(1,0,0,1,385,125) translate(41.66666666666667 59.02777777777778)"/><use xlink:href="#c" transform="matrix(1,0,0,1,385,125) translate(60.18518518518519 59.02777777777778)"/><path d="M660 207a7 7 0 0 1 7-7h146a7 7 0 0 1 7 7v106a7 7 0 0 1-7 7H667a7 7 0 0 1-7-7z" stroke="#000" stroke-width="2" fill="#c1e4f7"/><use xlink:href="#d" transform="matrix(1,0,0,1,665,205) translate(60.611111111111114 62.9375)"/><path d="M222.25 159.57h137.2" stroke="#000" stroke-width="2.5" fill="none"/><path d="M222.28 160.8H221v-2.45h1.28z" stroke="#000" stroke-width=".05"/><path d="M374.95 159.57l-14.26 4.64v-9.26z" stroke="#000" stroke-width="2.5"/><path d="M542.25 180H590a10 10 0 0 1 10 10v60a10 10 0 0 0 10 10h29.44" stroke="#000" stroke-width="2.5" fill="none"/><path d="M542.28 181.22H541v-2.44h1.28z" stroke="#000" stroke-width=".05"/><path d="M654.96 260l-14.27 4.63v-9.26z" stroke="#000" stroke-width="2.5"/><path d="M380 287a7 7 0 0 1 7-7h146a7 7 0 0 1 7 7v106a7 7 0 0 1-7 7H387a7 7 0 0 1-7-7z" stroke="#000" stroke-width="2" fill="#c92d39"/><use xlink:href="#b" transform="matrix(1,0,0,1,385,285) translate(16.975308641975303 59.02777777777778)"/><use xlink:href="#e" transform="matrix(1,0,0,1,385,285) translate(35.49382716049382 59.02777777777778)"/><path d="M542.25 340H586a14 14 0 0 0 14-14v-52a14 14 0 0 1 14-14h43.75" stroke="#000" stroke-width="2.5" fill="none"/><path d="M542.28 341.23H541v-2.46h1.28zM659 261.23h-1.28v-2.46H659z" stroke="#000" stroke-width=".05"/><path d="M60 287a7 7 0 0 1 7-7h146a7 7 0 0 1 7 7v106a7 7 0 0 1-7 7H67a7 7 0 0 1-7-7z" stroke="#000" stroke-width="2" fill="#c1e4f7"/><use xlink:href="#f" transform="matrix(1,0,0,1,65,285) translate(61.66666666666667 62.9375)"/><path d="M222.25 320.06h38.72a.03.03 0 0 0 .03-.03.03.03 0 0 1 .03-.03H296a14 14 0 0 0 14-14V194a14 14 0 0 1 14-14h35.44" stroke="#000" stroke-width="2.5" fill="none"/><path d="M222.28 321.3H221v-2.47h1.28z" stroke="#000" stroke-width=".05"/><path d="M374.95 180l-14.26 4.63v-9.26z" stroke="#000" stroke-width="2.5"/><path d="M222.25 198.78H276a14 14 0 0 1 14 14V326a14 14 0 0 0 14 14h55.44" stroke="#000" stroke-width="2.5" fill="none"/><path d="M222.28 200H221v-2.44h1.28z" stroke="#000" stroke-width=".05"/><path d="M374.95 340l-14.26 4.63v-9.26z" stroke="#000" stroke-width="2.5"/><path d="M222.25 360.18h137.2" stroke="#000" stroke-width="2.5" fill="none"/><path d="M222.28 361.4H221v-2.44h1.28z" stroke="#000" stroke-width=".05"/><path d="M374.95 360.18l-14.26 4.64v-9.27z" stroke="#000" stroke-width="2.5"/><path d="M460 117.75v-4m0-5.36v-8.04m0-5.35v-4l-.15-1.88-.22-.9m-1.43-3.47l-.5-.8-1.2-1.44-1.45-1.2-.8-.5m-3.46-1.43l-.92-.22L448 79h-3.9m-5.2 0h-7.8m-5.2 0h-7.8m-5.2 0h-7.8m-5.2 0h-7.8m-5.2 0h-7.8m-5.2 0h-7.8m-5.2 0h-7.8m-5.2 0h-7.8m-5.2 0h-7.8m-5.2 0h-7.8m-5.2 0h-7.8m-5.2 0H292l-1.88.15-.9.22m-3.47 1.43l-.8.5-1.44 1.22-1.2 1.43-.5.8m-1.43 3.46l-.22.92L280 91v2.53m0 3.38v2.54" stroke="#ffd9d9" stroke-width="2.5" fill="none"/><path d="M461.23 119h-2.46v-1.28h2.46z" stroke="#ffd9d9" stroke-width=".05" fill="#ffd9d9"/><path d="M280 114.95l-4.63-14.26h9.26z" stroke="#ffd9d9" stroke-width="2.5" fill="#ffd9d9"/><path d="M460 402.25v4m0 5.36v8.04m0 5.35v4l-.15 1.88-.22.9m-1.43 3.47l-.5.8-1.2 1.44-1.45 1.2-.8.5m-3.46 1.43l-.92.22-1.88.15h-3.9m-5.2 0h-7.8m-5.2 0h-7.8m-5.2 0h-7.8m-5.2 0h-7.8m-5.2 0h-7.8m-5.2 0h-7.8m-5.2 0h-7.8m-5.2 0h-7.8m-5.2 0h-7.8m-5.2 0h-7.8m-5.2 0h-7.8m-5.2 0H292l-1.88-.15-.9-.22m-3.47-1.43l-.8-.5-1.44-1.2-1.2-1.45-.5-.8m-1.43-3.46l-.22-.92L280 429v-2.53m0-3.38v-2.54" stroke="#ffd9d9" stroke-width="2.5" fill="none"/><path d="M461.23 402.28h-2.46V401h2.46z" stroke="#ffd9d9" stroke-width=".05" fill="#ffd9d9"/><path d="M280 405.05l4.63 14.26h-9.26z" stroke="#ffd9d9" stroke-width="2.5" fill="#ffd9d9"/><defs><path d="M185-189c-5-48-123-54-124 2 14 75 158 14 163 119 3 78-121 87-175 55-17-10-28-26-33-46l33-7c5 56 141 63 141-1 0-78-155-14-162-118-5-82 145-84 179-34 5 7 8 16 11 25" id="g"/><use transform="matrix(0.1111111111111111,0,0,0.1111111111111111,0,0)" xlink:href="#g" id="a"/><path d="M33 0v-248h34V0H33" id="h"/><path d="M68-38c1 34 0 65-14 84H32c9-13 17-26 17-46H33v-38h35" id="i"/><g id="b"><use transform="matrix(0.06172839506172839,0,0,0.06172839506172839,0,0)" xlink:href="#h"/><use transform="matrix(0.06172839506172839,0,0,0.06172839506172839,6.172839506172839,0)" xlink:href="#i"/></g><path d="M106-169C34-169 62-67 57 0H25v-261h32l-1 103c12-21 28-36 61-36 89 0 53 116 60 194h-32v-121c2-32-8-49-39-48" id="j"/><path d="M100-194c62-1 85 37 85 99 1 63-27 99-86 99S16-35 15-95c0-66 28-99 85-99zM99-20c44 1 53-31 53-75 0-43-8-75-51-75s-53 32-53 75 10 74 51 75" id="k"/><path d="M135-143c-3-34-86-38-87 0 15 53 115 12 119 90S17 21 10-45l28-5c4 36 97 45 98 0-10-56-113-15-118-90-4-57 82-63 122-42 12 7 21 19 24 35" id="l"/><path d="M115-194c55 1 70 41 70 98S169 2 115 4C84 4 66-9 55-30l1 105H24l-1-265h31l2 30c10-21 28-34 59-34zm-8 174c40 0 45-34 45-75s-6-73-45-74c-42 0-51 32-51 76 0 43 10 73 51 73" id="m"/><g id="c"><use transform="matrix(0.06172839506172839,0,0,0.06172839506172839,0,0)" xlink:href="#j"/><use transform="matrix(0.06172839506172839,0,0,0.06172839506172839,12.345679012345679,0)" xlink:href="#k"/><use transform="matrix(0.06172839506172839,0,0,0.06172839506172839,24.691358024691358,0)" xlink:href="#l"/><use transform="matrix(0.06172839506172839,0,0,0.06172839506172839,35.80246913580247,0)" xlink:href="#m"/></g><path d="M233-177c-1 41-23 64-60 70L243 0h-38l-65-103H63V0H30v-248c88 3 205-21 203 71zM63-129c60-2 137 13 137-47 0-61-80-42-137-45v92" id="n"/><use transform="matrix(0.1111111111111111,0,0,0.1111111111111111,0,0)" xlink:href="#n" id="d"/><path d="M117-194c89-4 53 116 60 194h-32v-121c0-31-8-49-39-48C34-167 62-67 57 0H25l-1-190h30c1 10-1 24 2 32 11-22 29-35 61-36" id="o"/><path d="M-5 72V49h209v23H-5" id="p"/><g id="e"><use transform="matrix(0.06172839506172839,0,0,0.06172839506172839,0,0)" xlink:href="#o"/><use transform="matrix(0.06172839506172839,0,0,0.06172839506172839,12.345679012345679,0)" xlink:href="#k"/><use transform="matrix(0.06172839506172839,0,0,0.06172839506172839,24.691358024691358,0)" xlink:href="#o"/><use transform="matrix(0.06172839506172839,0,0,0.06172839506172839,37.03703703703704,0)" xlink:href="#p"/><use transform="matrix(0.06172839506172839,0,0,0.06172839506172839,49.382716049382715,0)" xlink:href="#j"/><use transform="matrix(0.06172839506172839,0,0,0.06172839506172839,61.72839506172839,0)" xlink:href="#k"/><use transform="matrix(0.06172839506172839,0,0,0.06172839506172839,74.07407407407408,0)" xlink:href="#l"/><use transform="matrix(0.06172839506172839,0,0,0.06172839506172839,85.18518518518519,0)" xlink:href="#m"/></g><path d="M137 0h-34L2-248h35l83 218 83-218h36" id="q"/><use transform="matrix(0.1111111111111111,0,0,0.1111111111111111,0,0)" xlink:href="#q" id="f"/></defs></g></svg>